<?xml version="1.0" encoding="utf-8"?>
<!-- Generator: Adobe Illustrator 17.1.0, SVG Export Plug-In . SVG Version: 6.00 Build 0)  -->
<svg version="1.2" baseProfile="tiny" id="Layer_1" xmlns="http://www.w3.org/2000/svg" xmlns:xlink="http://www.w3.org/1999/xlink"
	 x="0px" y="0px" viewBox="0 0 30 24" xml:space="preserve">
<path fill="#333333" d="M29.9,3.7C29.9,5,28.8,6,27.5,6h-25C1.2,6,0.1,5,0.1,3.7l0,0c0-1.3,1.1-2.4,2.4-2.4h25
	C28.8,1.3,29.9,2.3,29.9,3.7L29.9,3.7z"/>
<path fill="#333333" d="M29.9,12c0,1.3-1.1,2.4-2.4,2.4h-25c-1.3,0-2.4-1.1-2.4-2.4l0,0c0-1.3,1.1-2.4,2.4-2.4h25
	C28.8,9.6,29.9,10.7,29.9,12L29.9,12z"/>
<path fill="#333333" d="M29.9,20.3c0,1.3-1.1,2.4-2.4,2.4h-25c-1.3,0-2.4-1.1-2.4-2.4l0,0C0.1,19,1.2,18,2.5,18h25
	C28.8,18,29.9,19,29.9,20.3L29.9,20.3z"/>
</svg>
